<?xml version="1.0" encoding="utf-8"?>
<!-- Generator: Adobe Illustrator 22.1.0, SVG Export Plug-In . SVG Version: 6.00 Build 0)  -->
<svg version="1.1" id="Layer_1" xmlns="http://www.w3.org/2000/svg" xmlns:xlink="http://www.w3.org/1999/xlink" x="0px" y="0px"
	 viewBox="0 0 512 512" style="enable-background:new 0 0 512 512;" xml:space="preserve">
<style type="text/css">
	.st0{fill:#34605E;}
</style>
<g>
	<g>
		<path class="st0" d="M60.2,418.6H27.6c-7,0-12.6,5.7-12.6,12.6s5.7,12.6,12.6,12.6h32.6c7,0,12.6-5.7,12.6-12.6
			C72.8,424.3,67.2,418.6,60.2,418.6z"/>
	</g>
</g>
<g>
	<g>
		<path class="st0" d="M114.2,467.4c-4.9-4.9-12.9-4.9-17.9,0l-23.1,23.1c-4.9,4.9-4.9,12.9,0,17.9c2.5,2.5,5.7,3.7,8.9,3.7
			s6.5-1.2,8.9-3.7l23.1-23.1C119.1,480.3,119.1,472.3,114.2,467.4z"/>
	</g>
</g>
<g>
	<g>
		<path class="st0" d="M484.4,425H263l226.7-226.7c9.9-9.9,9.9-25.9,0-35.7L334.5,7.4c-9.9-9.9-25.9-9.9-35.7,0l-248,248
			c-14.3,14.3-22.2,33.4-22.2,53.6c0,20.2,7.9,39.3,22.2,53.6l74.7,74.7c8.4,8.4,19.5,13,31.3,13h327.7c7,0,12.6-5.7,12.6-12.6
			C497.1,430.6,491.4,425,484.4,425z M156.8,425c-5.1,0-9.8-2-13.4-5.6l-74.7-74.7C49,325,49,292.9,68.7,273.2l40.6-40.6L242.6,366
			c2.5,2.5,5.7,3.7,8.9,3.7s6.5-1.2,8.9-3.7c4.9-4.9,4.9-12.9,0-17.9L127.1,214.8L316.7,25.3l155.1,155.2L227.2,425H156.8z"/>
	</g>
</g>
</svg>
