<?xml version="1.0" encoding="utf-8"?>
<!-- Generator: Adobe Illustrator 22.1.0, SVG Export Plug-In . SVG Version: 6.00 Build 0)  -->
<svg version="1.1" id="Capa_1" xmlns="http://www.w3.org/2000/svg" xmlns:xlink="http://www.w3.org/1999/xlink" x="0px" y="0px"
	 viewBox="0 0 32.8 32.8" style="enable-background:new 0 0 32.8 32.8;" xml:space="preserve">
<style type="text/css">
	.st0{fill:#34605E;}
</style>
<g>
	<g>
		<path class="st0" d="M21.6,23.7L21.6,23.7l-10.4,0c-0.3,0-0.5-0.2-0.5-0.4c-0.1-1-0.5-2.5-1.5-3.5c0,0,0,0,0,0
			c-2-1.7-3.3-4-3.8-6.5c-0.1-0.7-0.2-1.3-0.2-2C5.2,5,10.2,0,16.4,0s11.2,5,11.2,11.2c0,3.3-1.5,6.4-4,8.6c-1,1-1.3,2.5-1.5,3.5
			C22.1,23.5,21.8,23.7,21.6,23.7z M11.6,22.7l9.5,0c0.2-1.1,0.6-2.6,1.7-3.7c2.4-2,3.7-4.8,3.7-7.9C26.6,5.6,22,1,16.4,1
			S6.2,5.6,6.2,11.2c0,3,1.3,5.9,3.7,7.8c0,0,0.1,0.1,0.1,0.1C11,20.2,11.4,21.6,11.6,22.7z"/>
		<path class="st0" d="M21.6,26.7H11.2c-0.3,0-0.5-0.2-0.5-0.5s0.2-0.5,0.5-0.5h10.4c0.3,0,0.5,0.2,0.5,0.5S21.9,26.7,21.6,26.7z"/>
		<path class="st0" d="M21.6,29.7H11.2c-0.3,0-0.5-0.2-0.5-0.5s0.2-0.5,0.5-0.5h10.4c0.3,0,0.5,0.2,0.5,0.5S21.9,29.7,21.6,29.7z"/>
		<path class="st0" d="M18.6,32.8h-4.4c-0.3,0-0.5-0.2-0.5-0.5s0.2-0.5,0.5-0.5h4.4c0.3,0,0.5,0.2,0.5,0.5
			C19.1,32.5,18.8,32.8,18.6,32.8z"/>
	</g>
</g>
</svg>
